<svg width="90" height="29" viewBox="0 0 90 29" fill="none" xmlns="http://www.w3.org/2000/svg">
<g clip-path="url(#clip0_505_7438)">
<path d="M25.7997 19.9944C25.6585 19.6536 25.5262 19.2954 25.385 18.9895L24.7321 17.5303L24.7056 17.5041C22.7644 13.3099 20.6909 9.04586 18.4938 4.85168L18.4056 4.67693C18.185 4.26625 17.9644 3.81188 17.735 3.39246C17.4527 2.8944 17.1791 2.36139 16.7291 1.8546C16.2905 1.32432 15.7385 0.897092 15.1128 0.603733C14.4872 0.310373 13.8037 0.158203 13.1115 0.158203C12.4193 0.158203 11.7357 0.310373 11.1101 0.603733C10.4845 0.897092 9.93248 1.32432 9.49384 1.8546C9.07913 2.36139 8.77031 2.8944 8.48795 3.39246C8.26737 3.84683 8.04678 4.29246 7.81737 4.70314L7.72913 4.8779C5.56737 9.07207 3.45854 13.3362 1.51737 17.5303L1.46443 17.5828C1.27031 18.0371 1.0409 18.509 0.820308 19.0158C0.679131 19.3216 0.537955 19.6536 0.396778 20.0206C0.0156308 20.9816 -0.106082 22.0243 0.0436364 23.0461C0.193354 24.0678 0.609335 25.0333 1.25058 25.8474C1.89183 26.6614 2.73621 27.296 3.70051 27.6885C4.6648 28.081 5.71573 28.2179 6.74972 28.0857C7.74102 27.9564 8.69555 27.6295 9.5556 27.1245C10.7027 26.4866 11.8056 25.5604 13.0409 24.2235C14.2762 25.5604 15.4056 26.4866 16.5262 27.1332C17.6038 27.7596 18.8242 28.1053 20.0732 28.1381C21.5197 28.144 22.9196 27.6315 24.0143 26.6952C25.109 25.7589 25.8246 24.462 26.0291 23.0439C26.2655 22.0249 26.1855 20.9589 25.7997 19.9857V19.9944ZM13.1291 21.4449C11.6115 19.5226 10.6232 17.7575 10.288 16.2459C10.149 15.6857 10.1191 15.1045 10.1997 14.5332C10.2615 14.0876 10.4291 13.6944 10.6585 13.3624C11.188 12.6022 12.1144 12.1303 13.1291 12.1303C13.611 12.1157 14.089 12.2199 14.5202 12.4334C14.9514 12.6469 15.3224 12.9631 15.5997 13.3536C15.8291 13.7031 15.9968 14.0876 16.0497 14.5332C16.138 15.04 16.1027 15.6255 15.9615 16.2459C15.6262 17.7313 14.638 19.5138 13.1291 21.4449ZM24.3703 22.7381C24.2701 23.458 23.9811 24.1394 23.5321 24.7143C23.0831 25.2892 22.4899 25.7376 21.8115 26.0148C21.1409 26.2944 20.3997 26.373 19.6762 26.2944C18.9703 26.207 18.2644 25.9798 17.5409 25.5604C16.3396 24.8251 15.2594 23.9116 14.338 22.8517C16.1909 20.5798 17.3115 18.509 17.735 16.6653C17.938 15.7915 17.9644 15.0051 17.8762 14.2798C17.766 13.5924 17.5072 12.9367 17.1174 12.3575C16.6723 11.7295 16.0783 11.2194 15.3874 10.872C14.6966 10.5246 13.9302 10.3506 13.1556 10.3653C11.5232 10.3653 10.0674 11.1167 9.18501 12.3488C8.78781 12.9265 8.53111 13.5874 8.43501 14.2798C8.32031 15.0138 8.34678 15.8264 8.57619 16.6653C8.99972 18.509 10.1468 20.6061 11.9732 22.8692C11.0675 23.9493 9.98475 24.8709 8.77031 25.5954C8.03795 26.0148 7.3409 26.2332 6.63501 26.3206C5.53726 26.4599 4.42838 26.1644 3.54939 25.4985C2.6704 24.8326 2.09235 23.85 1.9409 22.7643C1.85266 22.0653 1.91443 21.3662 2.19678 20.5798C2.28501 20.3002 2.41737 20.0206 2.55854 19.6886C2.75266 19.2342 2.98207 18.7624 3.20266 18.2905L3.23795 18.2294C5.14384 14.0614 7.22619 9.80605 9.38795 5.63809L9.47619 5.46334C9.69678 5.04392 9.91737 4.59829 10.1468 4.17887C10.3762 3.73324 10.6232 3.30508 10.9409 2.95557C11.2158 2.63054 11.5594 2.36915 11.9474 2.1898C12.3354 2.01045 12.7583 1.9175 13.1865 1.9175C13.6146 1.9175 14.0376 2.01045 14.4256 2.1898C14.8136 2.36915 15.1571 2.63054 15.4321 2.95557C15.7409 3.30508 15.9968 3.73324 16.2262 4.17887C16.4468 4.59829 16.6674 5.05266 16.8968 5.46334L16.985 5.63809C19.138 9.80605 21.2203 14.0614 23.1615 18.2294L23.188 18.2556C23.4174 18.7099 23.6115 19.2167 23.8321 19.6536C23.9732 19.9944 24.1144 20.2653 24.2027 20.5536C24.3703 21.34 24.4585 22.0391 24.3703 22.7381V22.7381ZM36.6527 21.2527C35.9878 21.2623 35.3292 21.1236 34.7259 20.8467C34.1225 20.5699 33.5898 20.1621 33.1674 19.6536C32.218 18.5701 31.7142 17.173 31.7556 15.7391C31.7411 14.2739 32.2612 12.8528 33.2203 11.7371C33.664 11.2221 34.2162 10.8097 34.8382 10.5289C35.4602 10.2481 36.1368 10.1058 36.8203 10.1119C37.4635 10.0944 38.1006 10.2393 38.6717 10.5328C39.2428 10.8262 39.7291 11.2587 40.085 11.7895L40.1732 10.4177H42.7497V20.973H40.1644L40.0762 19.4352C39.7093 20.002 39.2021 20.4665 38.603 20.7846C38.0038 21.1027 37.3324 21.2638 36.6527 21.2527V21.2527ZM37.3232 18.7362C37.835 18.7362 38.285 18.5963 38.7085 18.3429C39.0968 18.0633 39.4144 17.6963 39.6615 17.2507C39.8821 16.8051 39.9968 16.2721 39.9968 15.6779C40.0312 15.1618 39.9297 14.6458 39.7024 14.1802C39.475 13.7146 39.1295 13.3154 38.6997 13.0216C38.2867 12.7668 37.8099 12.6317 37.3232 12.6317C36.8366 12.6317 36.3598 12.7668 35.9468 13.0216C35.5585 13.3012 35.2409 13.6682 34.9938 14.1138C34.7605 14.6053 34.6457 15.1437 34.6585 15.6866C34.6241 16.2027 34.7256 16.7188 34.9529 17.1844C35.1803 17.65 35.5258 18.0492 35.9556 18.3429C36.3703 18.5963 36.8203 18.7362 37.3232 18.7362ZM47.1615 7.56916C47.1615 7.87499 47.1085 8.1546 46.9674 8.38178C46.8262 8.60023 46.6321 8.8012 46.3762 8.941C46.1203 9.08081 45.8468 9.13324 45.5644 9.13324C45.2821 9.13324 44.9997 9.08081 44.7438 8.941C44.5018 8.80759 44.2983 8.61508 44.1527 8.38178C44.016 8.13287 43.949 7.85232 43.9585 7.56916C43.9585 7.2546 44.0203 6.97499 44.1527 6.75654C44.2938 6.4944 44.4968 6.33712 44.7438 6.19732C44.9997 6.05751 45.2732 5.99634 45.5644 5.99634C45.8453 5.98994 46.123 6.05581 46.3705 6.18752C46.6179 6.31924 46.8266 6.51229 46.9762 6.7478C47.1046 7.00255 47.1682 7.28451 47.1615 7.56916V7.56916ZM44.1615 20.9381V10.4002H46.9674V20.9556H44.1527L44.1615 20.9381ZM54.4674 13.1614V13.1963C54.335 13.1352 54.1585 13.109 54.0262 13.0828C53.8497 13.0478 53.7085 13.0478 53.5409 13.0478C52.7556 13.0478 52.1644 13.275 51.7762 13.7468C51.3527 14.2274 51.1585 14.9002 51.1585 15.7653V20.9468H48.3438V10.3915H50.9291L51.0174 11.9905C51.2997 11.4313 51.635 11.0119 52.1115 10.6973C52.5854 10.3917 53.1434 10.239 53.7085 10.2604C53.9115 10.2604 54.1056 10.2779 54.2732 10.3129C54.3615 10.3391 54.4144 10.3391 54.4674 10.3653V13.1614V13.1614ZM55.5968 20.9381V6.06625H58.4027V11.7459C58.7997 11.2391 59.2497 10.8459 59.8144 10.54C60.7084 10.106 61.724 9.98284 62.6973 10.1905C63.6707 10.3982 64.545 10.9246 65.1791 11.6847C66.1306 12.7705 66.6346 14.1711 66.5909 15.608C66.6054 17.0732 66.0853 18.4942 65.1262 19.6099C64.6825 20.1249 64.1303 20.5373 63.5083 20.8181C62.8863 21.0989 62.2097 21.2413 61.5262 21.2352C60.883 21.2526 60.2459 21.1078 59.6748 20.8143C59.1037 20.5208 58.6174 20.0883 58.2615 19.5575L58.1732 20.9294L55.5968 20.9556V20.9381ZM61.0233 18.7362C61.5262 18.7362 61.9762 18.5963 62.3997 18.3429C62.788 18.0633 63.1056 17.6963 63.3527 17.2507C63.5821 16.8051 63.688 16.2721 63.688 15.6779C63.688 15.0925 63.5821 14.5595 63.3527 14.1138C63.1209 13.6841 62.7954 13.311 62.3997 13.0216C61.9867 12.7668 61.5099 12.6317 61.0233 12.6317C60.5366 12.6317 60.0598 12.7668 59.6468 13.0216C59.2497 13.3012 58.9409 13.6682 58.685 14.1138C58.4517 14.6053 58.3369 15.1437 58.3497 15.6866C58.3153 16.2027 58.4168 16.7188 58.6441 17.1844C58.8715 17.65 59.2169 18.0492 59.6468 18.3429C60.0615 18.5963 60.5115 18.7362 61.0233 18.7362ZM67.6497 20.9468V10.3915H70.235L70.3232 11.7633C70.6481 11.2375 71.109 10.8071 71.6581 10.5168C72.2073 10.2264 72.8248 10.0866 73.4468 10.1119C74.158 10.0997 74.8571 10.2955 75.4566 10.6747C76.0561 11.0539 76.5295 11.5997 76.8174 12.2439C77.1262 12.908 77.2938 13.7294 77.2938 14.6468V20.973H74.4791V15.0138C74.4791 14.2798 74.3115 13.7031 73.9762 13.275C73.6409 12.8556 73.1821 12.6284 72.5997 12.6284C72.1762 12.6284 71.8056 12.7158 71.4791 12.908C71.1703 13.109 70.9144 13.3624 70.7203 13.7206C70.524 14.0828 70.4267 14.4894 70.438 14.9002V20.9468H67.6497V20.9468ZM78.6968 20.9468V6.05751H81.5115V11.7371C81.8927 11.2275 82.3887 10.8129 82.96 10.5262C83.5313 10.2396 84.1622 10.0887 84.8027 10.0857C85.4675 10.076 86.1261 10.2148 86.7294 10.4916C87.3328 10.7684 87.8655 11.1762 88.288 11.6847C89.2326 12.7704 89.7331 14.1667 89.6909 15.5993C89.7062 17.0645 89.186 18.4859 88.2262 19.6012C87.7825 20.1162 87.2303 20.5286 86.6083 20.8094C85.9863 21.0902 85.3097 21.2326 84.6262 21.2264C83.983 21.2439 83.3459 21.099 82.7748 20.8056C82.2037 20.5121 81.7174 20.0796 81.3615 19.5488L81.2821 20.9206L78.6968 20.9468V20.9468ZM84.1497 18.7362C84.6615 18.7362 85.1115 18.5963 85.5262 18.3429C85.9232 18.0633 86.2321 17.6963 86.4879 17.2507C86.7085 16.8051 86.8232 16.2721 86.8232 15.6779C86.8576 15.1618 86.7562 14.6458 86.5289 14.1802C86.3015 13.7146 85.956 13.3154 85.5262 13.0216C85.1132 12.7668 84.6363 12.6317 84.1497 12.6317C83.6631 12.6317 83.1862 12.7668 82.7732 13.0216C82.385 13.3012 82.0674 13.6682 81.8203 14.1138C81.574 14.6009 81.4585 15.1426 81.485 15.6866C81.4506 16.2027 81.5521 16.7188 81.7794 17.1844C82.0068 17.65 82.3522 18.0492 82.7821 18.3429C83.1968 18.5963 83.6203 18.7362 84.1497 18.7362Z" fill="#FF385C"/>
</g>
<defs>
<clipPath id="clip0_505_7438">
<rect width="90" height="27.9612" fill="white" transform="translate(0 0.177734)"/>
</clipPath>
</defs>
</svg>
