<svg width="90" height="29" viewBox="0 0 90 29" fill="none" xmlns="http://www.w3.org/2000/svg">
<g clip-path="url(#clip0_505_7447)">
<path fill-rule="evenodd" clip-rule="evenodd" d="M55.8341 22.0445C50.604 26.0188 43.0234 28.1392 36.4966 28.1392C27.345 28.1392 19.1062 24.6496 12.8732 18.8458C12.3835 18.3894 12.8223 17.7674 13.4099 18.1228C20.1365 22.1576 28.4537 24.585 37.0451 24.585C42.8392 24.585 49.2132 23.3491 55.074 20.7844C55.9594 20.3967 56.6999 21.3822 55.8341 22.0445" fill="#FF9900"/>
<path fill-rule="evenodd" clip-rule="evenodd" d="M58.0089 19.479C57.343 18.5985 53.5899 19.063 51.9053 19.2689C51.3921 19.3336 51.3137 18.8731 51.776 18.5419C54.7651 16.3731 59.67 16.9991 60.242 17.7261C60.814 18.4571 60.0931 23.5259 57.2842 25.9452C56.8532 26.3168 56.4419 26.1189 56.6339 25.6261C57.2646 24.0025 58.6789 20.3635 58.0089 19.479" fill="#FF9900"/>
<path fill-rule="evenodd" clip-rule="evenodd" d="M52.022 3.23127V1.12298C52.022 0.803904 52.2571 0.589844 52.5392 0.589844H61.6947C61.9885 0.589844 62.2236 0.807943 62.2236 1.12298V2.92835C62.2197 3.23127 61.9728 3.62708 61.5341 4.2531L56.7898 11.2363C58.5527 11.1919 60.4136 11.4625 62.012 12.3914C62.3724 12.6015 62.4704 12.9084 62.4978 13.2113V15.461C62.4978 15.7679 62.1687 16.1274 61.824 15.9416C59.0072 14.419 55.2658 14.2534 52.1513 15.9578C51.834 16.1355 51.501 15.7801 51.501 15.4731V13.3365C51.501 12.9932 51.5049 12.4076 51.8379 11.8866L57.3343 3.76036H52.5509C52.2571 3.76036 52.022 3.5463 52.022 3.23127" fill="black"/>
<path fill-rule="evenodd" clip-rule="evenodd" d="M18.6248 16.385H15.8393C15.5729 16.3648 15.3614 16.1588 15.3418 15.8963V1.15845C15.3418 0.86361 15.5808 0.629354 15.8785 0.629354H18.4759C18.7462 0.641462 18.9617 0.85553 18.9813 1.1221V3.04864H19.0322C19.71 1.18672 20.9832 0.318359 22.6991 0.318359C24.4425 0.318359 25.5316 1.18672 26.3151 3.04864C26.9889 1.18672 28.5207 0.318359 30.1622 0.318359C31.3297 0.318359 32.6068 0.815141 33.3865 1.92987C34.2679 3.16981 34.0877 4.97114 34.0877 6.55034L34.0838 15.8519C34.0838 16.1467 33.8448 16.385 33.5471 16.385H30.7656C30.4874 16.3648 30.2641 16.1346 30.2641 15.8519V8.04069C30.2641 7.4187 30.3189 5.86778 30.1857 5.2781C29.9781 4.28858 29.3552 4.00989 28.5482 4.00989C27.8743 4.00989 27.1692 4.47436 26.8832 5.21752C26.5972 5.96067 26.6246 7.20464 26.6246 8.04069V15.8519C26.6246 16.1467 26.3856 16.385 26.0879 16.385H23.3064C23.0243 16.3648 22.8049 16.1346 22.8049 15.8519L22.801 8.04069C22.801 6.39687 23.0635 3.97758 21.0851 3.97758C19.0831 3.97758 19.1615 6.33628 19.1615 8.04069V15.8519C19.1615 16.1467 18.9225 16.385 18.6248 16.385" fill="black"/>
<path fill-rule="evenodd" clip-rule="evenodd" d="M70.1061 0.318359C74.2392 0.318359 76.4762 3.97758 76.4762 8.63037C76.4762 13.1256 74.0042 16.692 70.1061 16.692C66.0474 16.692 63.8379 13.0327 63.8379 8.47285C63.8379 3.88469 66.0749 0.318359 70.1061 0.318359V0.318359ZM70.1296 3.32732C68.0768 3.32732 67.9475 6.21108 67.9475 8.00838C67.9475 9.80972 67.9201 13.6547 70.1061 13.6547C72.2648 13.6547 72.3666 10.5529 72.3666 8.66268C72.3666 7.41871 72.3157 5.9324 71.9513 4.75305C71.6379 3.72717 71.015 3.32732 70.1296 3.32732" fill="black"/>
<path fill-rule="evenodd" clip-rule="evenodd" d="M81.8357 16.385H79.062C78.7839 16.3648 78.5606 16.1346 78.5606 15.8519L78.5566 1.10998C78.5801 0.839374 78.8113 0.629354 79.0934 0.629354H81.6751C81.918 0.641462 82.1178 0.811103 82.1726 1.04132V3.29501H82.2236C83.0032 1.27961 84.0962 0.318359 86.0197 0.318359C87.2695 0.318359 88.4879 0.782831 89.2714 2.05508C90.0001 3.23443 90.0001 5.21752 90.0001 6.64324V15.9205C89.9687 16.179 89.7376 16.385 89.4634 16.385H86.6701C86.4154 16.3648 86.2039 16.1709 86.1765 15.9205V7.91548C86.1765 6.30397 86.3567 3.94527 84.4331 3.94527C83.7553 3.94527 83.1324 4.41378 82.8229 5.12462C82.4312 6.02529 82.3803 6.92192 82.3803 7.91548V15.8519C82.3763 16.1467 82.1334 16.385 81.8357 16.385" fill="black"/>
<path fill-rule="evenodd" clip-rule="evenodd" d="M44.7241 9.34599C44.7241 10.4648 44.7515 11.3977 44.203 12.3913C43.7603 13.1991 43.0552 13.6959 42.2755 13.6959C41.206 13.6959 40.5792 12.8558 40.5792 11.6158C40.5792 9.16828 42.7065 8.724 44.7241 8.724V9.34599V9.34599ZM47.533 16.3454C47.3489 16.515 47.0825 16.5271 46.8749 16.414C45.9503 15.6224 45.7818 15.2549 45.2765 14.4996C43.7486 16.1071 42.6634 16.5877 40.685 16.5877C38.3383 16.5877 36.5166 15.0973 36.5166 12.1126C36.5166 9.78219 37.7389 8.19491 39.4862 7.41944C40.9984 6.73283 43.11 6.61167 44.7241 6.42184V6.05026C44.7241 5.36769 44.775 4.55992 44.3832 3.97024C44.0463 3.44115 43.396 3.22305 42.8201 3.22305C41.7584 3.22305 40.8143 3.78445 40.5831 4.94765C40.5361 5.20614 40.352 5.46059 40.0973 5.4727L37.3981 5.17382C37.1708 5.12132 36.9162 4.93149 36.9828 4.57203C37.6018 1.19553 40.5635 0.177734 43.2119 0.177734C44.5674 0.177734 46.3381 0.549312 47.4077 1.6075C48.7632 2.91205 48.6339 4.65281 48.6339 6.54705V11.0221C48.6339 12.3671 49.1745 12.9567 49.6838 13.6837C49.8601 13.9422 49.8993 14.2532 49.672 14.4471C49.104 14.9358 48.0932 15.8445 47.5369 16.3534L47.533 16.3453" fill="black"/>
<path fill-rule="evenodd" clip-rule="evenodd" d="M8.20746 9.34598C8.20746 10.4648 8.23488 11.3977 7.68642 12.3913C7.24372 13.1991 6.54246 13.6959 5.75893 13.6959C4.68942 13.6959 4.06651 12.8558 4.06651 11.6158C4.06651 9.16827 6.19379 8.724 8.20746 8.724V9.34598V9.34598ZM11.0164 16.3454C10.8323 16.515 10.5659 16.5271 10.3582 16.414C9.43368 15.6224 9.26914 15.2549 8.75985 14.4996C7.23197 16.1071 6.1507 16.5877 4.16837 16.5877C1.82562 16.5877 0 15.0973 0 12.1126C0 9.78218 1.22622 8.1949 2.96957 7.41944C4.48178 6.73283 6.59339 6.61167 8.20746 6.42184V6.05026C8.20746 5.36769 8.25839 4.55991 7.87054 3.97024C7.52971 3.44115 6.87938 3.22305 6.3074 3.22305C5.24572 3.22305 4.29765 3.78445 4.06651 4.94765C4.0195 5.20614 3.83537 5.46059 3.58464 5.4727L0.88147 5.17382C0.654246 5.12132 0.403516 4.93149 0.466199 4.57203C1.0891 1.19553 4.04692 0.177734 6.69525 0.177734C8.05075 0.177734 9.82153 0.549312 10.891 1.6075C12.2465 2.91205 12.1173 4.65281 12.1173 6.54704V11.0221C12.1173 12.3671 12.6579 12.9567 13.1672 13.6837C13.3474 13.9422 13.3866 14.2532 13.1594 14.4471C12.5913 14.9358 11.5805 15.8445 11.0242 16.3534L11.0164 16.3453" fill="black"/>
</g>
<defs>
<clipPath id="clip0_505_7447">
<rect width="90" height="27.9612" fill="white" transform="translate(0 0.177734)"/>
</clipPath>
</defs>
</svg>
