<svg width="16" height="9" viewBox="0 0 16 9" fill="none" xmlns="http://www.w3.org/2000/svg">
<path d="M15.8167 3.57841C15.8165 3.57822 15.8163 3.57799 15.8161 3.57779L12.5504 0.189729C12.3057 -0.0640821 11.91 -0.0631376 11.6665 0.191944C11.423 0.446994 11.4239 0.859523 11.6686 1.11337L13.8612 3.38806H0.625C0.279812 3.38806 0 3.67976 0 4.03961C0 4.39946 0.279812 4.69116 0.625 4.69116H13.8611L11.6686 6.96586C11.4239 7.2197 11.423 7.63223 11.6665 7.88728C11.91 8.14239 12.3058 8.14327 12.5504 7.88949L15.8161 4.50143C15.8163 4.50124 15.8165 4.50101 15.8167 4.50081C16.0615 4.24612 16.0607 3.83226 15.8167 3.57841Z" fill="#009379"/>
</svg>
