<svg width="18" height="11" viewBox="0 0 18 11" fill="none" xmlns="http://www.w3.org/2000/svg">
<path fill-rule="evenodd" clip-rule="evenodd" d="M10.9055 1.98301H15.4251V0.688163H10.9055V1.98301ZM11.9762 4.80833C11.6882 5.10135 11.5066 5.49832 11.4323 5.99924H14.9474C14.9103 5.46466 14.7277 5.06077 14.4046 4.78259C14.0774 4.5064 13.6751 4.36879 13.1934 4.36879C12.6716 4.36879 12.2642 4.51531 11.9762 4.80833ZM15.0267 3.07C15.5715 3.30957 16.0201 3.68971 16.3733 4.20844C16.6954 4.66579 16.9021 5.1964 16.9964 5.79928C17.0516 6.1517 17.0737 6.66252 17.0647 7.32677H11.3821C11.4162 8.09794 11.6852 8.63944 12.1989 8.94929C12.51 9.14233 12.8843 9.23934 13.3238 9.23934C13.7864 9.23934 14.1647 9.12154 14.4547 8.88692C14.6142 8.75922 14.7547 8.58301 14.8751 8.3573H16.9573C16.9021 8.81268 16.6492 9.27696 16.2017 9.74818C15.5033 10.4956 14.5249 10.8698 13.2676 10.8698C12.229 10.8698 11.3129 10.555 10.5212 9.9234C9.72543 9.2928 9.33007 8.26524 9.33007 6.84368C9.33007 5.51022 9.6883 4.4876 10.4038 3.77583C11.1212 3.06604 12.0494 2.70867 13.1924 2.70867C13.8717 2.70867 14.4828 2.82944 15.0267 3.07ZM2.10221 6.02697V8.80178H4.66302C5.12059 8.80178 5.47782 8.74041 5.73169 8.61864C6.19428 8.39096 6.42508 7.95934 6.42508 7.31983C6.42508 6.77734 6.20231 6.40611 5.75377 6.20318C5.5029 6.09032 5.15069 6.03092 4.69914 6.02697H2.10221ZM2.10221 2.00975V4.30543H4.66703C5.1236 4.30543 5.49588 4.2193 5.78287 4.04705C6.06785 3.8748 6.21134 3.5699 6.21134 3.13432C6.21134 2.64826 6.02269 2.32851 5.64539 2.1721C5.31827 2.06419 4.90284 2.00975 4.3981 2.00975H2.10221ZM7.82994 1.31186C8.15204 1.75437 8.3136 2.283 8.3136 2.89974C8.3136 3.53429 8.15204 4.04609 7.82592 4.43217C7.64329 4.64798 7.37537 4.84597 7.02115 5.02416C7.559 5.21819 7.9644 5.52408 8.24035 5.94283C8.51329 6.36059 8.65076 6.86942 8.65076 7.46735C8.65076 8.08408 8.49422 8.63746 8.18014 9.1265C7.98146 9.45021 7.7326 9.72343 7.43357 9.94518C7.09742 10.1996 6.70105 10.3728 6.24248 10.4679C5.7839 10.5619 5.28819 10.6075 4.75235 10.6075H0V0.203125H5.09653C6.38296 0.221934 7.29309 0.591184 7.82994 1.31186Z" fill="#2D2D2D"/>
</svg>
