<svg width="32" height="33" viewBox="0 0 32 33" fill="none" xmlns="http://www.w3.org/2000/svg">
<path fill-rule="evenodd" clip-rule="evenodd" d="M0 16.3086C0 7.47204 7.16344 0.308594 16 0.308594C24.8366 0.308594 32 7.47204 32 16.3086C32 25.1452 24.8366 32.3086 16 32.3086C7.16344 32.3086 0 25.1452 0 16.3086Z" fill="#E5F4F2"/>
<path fill-rule="evenodd" clip-rule="evenodd" d="M18.3723 12.7545H22.8919V11.4596H18.3723V12.7545ZM19.443 15.5798C19.155 15.8728 18.9734 16.2698 18.8991 16.7707H22.4142C22.3771 16.2361 22.1945 15.8323 21.8714 15.5541C21.5442 15.2779 21.1419 15.1403 20.6602 15.1403C20.1384 15.1403 19.731 15.2868 19.443 15.5798ZM22.4935 13.8415C23.0383 14.0811 23.4869 14.4612 23.8401 14.9799C24.1622 15.4373 24.3689 15.9679 24.4632 16.5708C24.5184 16.9232 24.5405 17.434 24.5315 18.0983H18.8489C18.883 18.8694 19.152 19.4109 19.6657 19.7208C19.9768 19.9138 20.3511 20.0108 20.7906 20.0108C21.2532 20.0108 21.6315 19.893 21.9215 19.6584C22.081 19.5307 22.2215 19.3545 22.3419 19.1288H24.4241C24.3689 19.5842 24.116 20.0484 23.6685 20.5197C22.9701 21.2671 21.9917 21.6413 20.7344 21.6413C19.6958 21.6413 18.7797 21.3265 17.988 20.6949C17.1922 20.0643 16.7969 19.0367 16.7969 17.6152C16.7969 16.2817 17.1551 15.2591 17.8706 14.5473C18.588 13.8375 19.5162 13.4802 20.6592 13.4802C21.3385 13.4802 21.9496 13.6009 22.4935 13.8415ZM9.569 16.7984V19.5733H12.1298C12.5874 19.5733 12.9446 19.5119 13.1985 19.3901C13.6611 19.1624 13.8919 18.7308 13.8919 18.0913C13.8919 17.5488 13.6691 17.1776 13.2206 16.9747C12.9697 16.8618 12.6175 16.8024 12.1659 16.7984H9.569ZM9.569 12.7812V15.0769H12.1338C12.5904 15.0769 12.9627 14.9908 13.2497 14.8185C13.5346 14.6463 13.6781 14.3414 13.6781 13.9058C13.6781 13.4197 13.4895 13.1 13.1122 12.9436C12.7851 12.8357 12.3696 12.7812 11.8649 12.7812H9.569ZM15.2967 12.0833C15.6188 12.5259 15.7804 13.0545 15.7804 13.6712C15.7804 14.3058 15.6188 14.8176 15.2927 15.2037C15.1101 15.4195 14.8422 15.6175 14.488 15.7956C15.0258 15.9897 15.4312 16.2956 15.7071 16.7143C15.9801 17.1321 16.1176 17.6409 16.1176 18.2388C16.1176 18.8556 15.961 19.4089 15.6469 19.898C15.4483 20.2217 15.1994 20.4949 14.9004 20.7167C14.5642 20.9711 14.1678 21.1443 13.7093 21.2394C13.2507 21.3334 12.755 21.3789 12.2191 21.3789H7.4668V10.9746H12.5633C13.8498 10.9934 14.7599 11.3627 15.2967 12.0833Z" fill="#2D2D2D"/>
</svg>
