<svg width="32" height="33" viewBox="0 0 32 33" fill="none" xmlns="http://www.w3.org/2000/svg">
<path fill-rule="evenodd" clip-rule="evenodd" d="M0 16.3086C0 7.47204 7.16344 0.308594 16 0.308594C24.8366 0.308594 32 7.47204 32 16.3086C32 25.1452 24.8366 32.3086 16 32.3086C7.16344 32.3086 0 25.1452 0 16.3086Z" fill="#4E4D4D"/>
<path fill-rule="evenodd" clip-rule="evenodd" d="M24.5335 16.2969C24.5335 16.874 24.4747 17.4503 24.3593 18.012C24.2468 18.5604 24.0801 19.0988 23.8618 19.6135C23.6485 20.1191 23.3839 20.6063 23.0747 21.0607C22.7701 21.5122 22.4192 21.9357 22.0338 22.3219C21.6475 22.7063 21.2225 23.0562 20.7712 23.3621C20.3154 23.6691 19.8275 23.9333 19.3216 24.1477C18.8061 24.3648 18.2665 24.5313 17.7186 24.6436C17.1561 24.7593 16.5777 24.8184 15.9997 24.8184C15.4214 24.8184 14.843 24.7593 14.2813 24.6436C13.7326 24.5313 13.1929 24.3648 12.6779 24.1477C12.1721 23.9333 11.6837 23.6691 11.2278 23.3621C10.7766 23.0562 10.3516 22.7063 9.96611 22.3219C9.58027 21.9357 9.2294 21.5122 8.92439 21.0607C8.61687 20.6063 8.35184 20.1191 8.13768 19.6135C7.9193 19.0988 7.75224 18.5604 7.63931 18.012C7.52515 17.4503 7.4668 16.874 7.4668 16.2969C7.4668 15.7194 7.52511 15.1418 7.63934 14.5813C7.75227 14.0329 7.91934 13.4937 8.13771 12.9798C8.35187 12.4739 8.6169 11.9862 8.92442 11.5318C9.22943 11.08 9.5803 10.6572 9.96614 10.2707C10.3516 9.88618 10.7766 9.53712 11.2279 9.23171C11.6837 8.92337 12.1721 8.65919 12.6779 8.44447C13.193 8.22681 13.7326 8.05998 14.2814 7.94849C14.8431 7.83366 15.4214 7.77539 15.9998 7.77539C16.5777 7.77539 17.1561 7.83366 17.7186 7.94849C18.2665 8.06002 18.8061 8.22685 19.3216 8.44447C19.8275 8.65916 20.3154 8.92337 20.7713 9.23171C21.2225 9.53712 21.6476 9.88618 22.0338 10.2707C22.4193 10.6572 22.7701 11.08 23.0747 11.5318C23.3839 11.9862 23.6485 12.4739 23.8618 12.9798C24.0801 13.4937 24.2468 14.0329 24.3593 14.5813C24.4747 15.1418 24.5335 15.7194 24.5335 16.2969ZM12.8904 9.71477C10.8582 10.673 9.34143 12.5429 8.86848 14.7965C9.0606 14.7981 12.0974 14.8364 15.5963 13.9081C14.335 11.6704 12.9875 9.84421 12.8904 9.71477ZM16.2001 15.0287C12.4479 16.1504 8.84724 16.0697 8.71808 16.0647C8.71597 16.1429 8.71223 16.2186 8.71223 16.2969C8.71223 18.1663 9.41851 19.8706 10.5794 21.1593C10.5769 21.1555 12.5712 17.6225 16.5039 16.3526C16.5989 16.321 16.6956 16.2927 16.7914 16.2653C16.6085 15.8517 16.4089 15.4373 16.2001 15.0287ZM20.8125 10.8353C19.5295 9.70561 17.8448 9.02035 15.9997 9.02035C15.4076 9.02035 14.833 9.09193 14.2825 9.22423C14.3917 9.37072 15.7605 11.184 17.0068 13.4691C19.7566 12.4397 20.7945 10.8619 20.8125 10.8353ZM17.2882 17.4711C17.2719 17.4765 17.2557 17.4811 17.2398 17.4869C12.9401 18.9837 11.536 22.0001 11.5208 22.0331C12.7579 22.9938 14.3097 23.5734 15.9998 23.5734C17.009 23.5734 17.9703 23.3682 18.8449 22.9967C18.737 22.3609 18.3136 20.1324 17.2882 17.4711ZM20.072 22.3318C21.7083 21.2292 22.8705 19.4783 23.1946 17.4502C23.0446 17.402 21.0058 16.7575 18.6536 17.134C19.6095 19.7571 19.9978 21.8933 20.072 22.3318ZM17.5678 14.5535C17.7369 14.9005 17.9007 15.2537 18.0519 15.6087C18.1057 15.736 18.1582 15.8608 18.2095 15.9856C20.7129 15.6711 23.1793 16.2003 23.2847 16.2219C23.2681 14.4969 22.6501 12.9136 21.6276 11.6741C21.6138 11.6937 20.445 13.3801 17.5678 14.5535Z" fill="white"/>
</svg>
