<svg width="33" height="33" viewBox="0 0 33 33" fill="none" xmlns="http://www.w3.org/2000/svg">
<path fill-rule="evenodd" clip-rule="evenodd" d="M0.5 16.5C0.5 7.66344 7.66344 0.5 16.5 0.5C25.3366 0.5 32.5 7.66344 32.5 16.5C32.5 25.3366 25.3366 32.5 16.5 32.5C7.66344 32.5 0.5 25.3366 0.5 16.5Z" fill="#E5F4F2"/>
<path fill-rule="evenodd" clip-rule="evenodd" d="M25.0335 16.4883C25.0335 17.0654 24.9747 17.6417 24.8593 18.2034C24.7468 18.7518 24.5801 19.2902 24.3618 19.8049C24.1485 20.3105 23.8839 20.7977 23.5747 21.2521C23.2701 21.7036 22.9192 22.1271 22.5338 22.5133C22.1475 22.8977 21.7225 23.2476 21.2712 23.5535C20.8154 23.8605 20.3275 24.1247 19.8216 24.3391C19.3061 24.5562 18.7665 24.7227 18.2186 24.835C17.6561 24.9507 17.0777 25.0098 16.4997 25.0098C15.9214 25.0098 15.343 24.9507 14.7813 24.835C14.2326 24.7227 13.6929 24.5562 13.1779 24.3391C12.6721 24.1247 12.1837 23.8605 11.7278 23.5535C11.2766 23.2476 10.8516 22.8977 10.4661 22.5133C10.0803 22.1271 9.7294 21.7036 9.42439 21.2521C9.11687 20.7977 8.85184 20.3105 8.63768 19.8049C8.4193 19.2902 8.25224 18.7518 8.13931 18.2034C8.02515 17.6417 7.9668 17.0654 7.9668 16.4883C7.9668 15.9108 8.02511 15.3332 8.13934 14.7727C8.25227 14.2243 8.41934 13.6851 8.63771 13.1712C8.85187 12.6653 9.1169 12.1776 9.42442 11.7232C9.72943 11.2714 10.0803 10.8486 10.4661 10.4621C10.8516 10.0776 11.2766 9.72852 11.7279 9.42312C12.1837 9.11478 12.6721 8.85059 13.1779 8.63587C13.693 8.41822 14.2326 8.25139 14.7814 8.13989C15.3431 8.02506 15.9214 7.9668 16.4998 7.9668C17.0777 7.9668 17.6561 8.02506 18.2186 8.13989C18.7665 8.25142 19.3061 8.41825 19.8216 8.63587C20.3275 8.85056 20.8154 9.11478 21.2713 9.42312C21.7225 9.72852 22.1476 10.0776 22.5338 10.4621C22.9193 10.8486 23.2701 11.2714 23.5747 11.7232C23.8839 12.1776 24.1485 12.6653 24.3618 13.1712C24.5801 13.6851 24.7468 14.2243 24.8593 14.7727C24.9747 15.3332 25.0335 15.9108 25.0335 16.4883ZM13.3904 9.90618C11.3582 10.8645 9.84143 12.7343 9.36848 14.9879C9.5606 14.9895 12.5974 15.0278 16.0963 14.0995C14.835 11.8618 13.4875 10.0356 13.3904 9.90618ZM16.7001 15.2201C12.9479 16.3418 9.34724 16.2611 9.21808 16.2561C9.21597 16.3343 9.21223 16.41 9.21223 16.4883C9.21223 18.3577 9.91851 20.062 11.0794 21.3507C11.0769 21.3469 13.0712 17.8139 17.0039 16.5441C17.0989 16.5124 17.1956 16.4841 17.2914 16.4567C17.1085 16.0431 16.9089 15.6287 16.7001 15.2201ZM21.3125 11.0267C20.0295 9.89701 18.3448 9.21176 16.4997 9.21176C15.9076 9.21176 15.333 9.28333 14.7825 9.41564C14.8917 9.56212 16.2605 11.3754 17.5068 13.6605C20.2566 12.6312 21.2945 11.0533 21.3125 11.0267ZM17.7882 17.6625C17.7719 17.6679 17.7557 17.6725 17.7398 17.6783C13.4401 19.1751 12.036 22.1915 12.0208 22.2245C13.2579 23.1852 14.8097 23.7648 16.4998 23.7648C17.509 23.7648 18.4703 23.5596 19.3449 23.1881C19.237 22.5523 18.8136 20.3238 17.7882 17.6625ZM20.572 22.5232C22.2083 21.4206 23.3705 19.6697 23.6946 17.6416C23.5446 17.5934 21.5058 16.9489 19.1536 17.3254C20.1095 19.9485 20.4978 22.0847 20.572 22.5232ZM18.0678 14.7449C18.2369 15.0919 18.4007 15.4451 18.5519 15.8001C18.6057 15.9274 18.6582 16.0522 18.7095 16.177C21.2129 15.8625 23.6793 16.3917 23.7847 16.4133C23.7681 14.6883 23.1501 13.1051 22.1276 11.8656C22.1138 11.8851 20.945 13.5715 18.0678 14.7449Z" fill="#2D2D2D"/>
</svg>
