<svg width="27" height="26" viewBox="0 0 27 26" fill="none" xmlns="http://www.w3.org/2000/svg">
<path d="M14.0077 20.5705L19.8226 24.2625C20.5725 24.7356 21.4956 24.0318 21.2763 23.1665L19.5919 16.5439C19.5463 16.3603 19.5535 16.1676 19.6127 15.988C19.6719 15.8083 19.7807 15.6491 19.9264 15.5286L25.1414 11.1789C25.8222 10.6135 25.476 9.47133 24.5876 9.41364L17.7804 8.97521C17.5947 8.9644 17.4161 8.89973 17.2666 8.78908C17.117 8.67844 17.0029 8.52662 16.9382 8.35218L14.3999 1.96035C14.3327 1.77563 14.2103 1.61607 14.0493 1.50332C13.8883 1.39056 13.6966 1.33008 13.5 1.33008C13.3034 1.33008 13.1117 1.39056 12.9507 1.50332C12.7897 1.61607 12.6673 1.77563 12.6001 1.96035L10.0618 8.35218C9.9971 8.52662 9.883 8.67844 9.73342 8.78908C9.58385 8.89973 9.40529 8.9644 9.21955 8.97521L2.41237 9.41364C1.52397 9.47133 1.17784 10.6135 1.85856 11.1789L7.07356 15.5286C7.21932 15.6491 7.32806 15.8083 7.38726 15.988C7.44645 16.1676 7.4537 16.3603 7.40815 16.5439L5.85057 22.6819C5.58521 23.7203 6.69282 24.5625 7.58121 23.9972L12.9923 20.5705C13.1441 20.474 13.3202 20.4228 13.5 20.4228C13.6798 20.4228 13.8559 20.474 14.0077 20.5705V20.5705Z" stroke="#F8D57E" stroke-width="2" stroke-linecap="round" stroke-linejoin="round"/>
</svg>
