<svg width="90" height="28" viewBox="0 0 90 28" fill="none" xmlns="http://www.w3.org/2000/svg">
<g clip-path="url(#clip0_505_7462)">
<path d="M66.9277 26.8496L74.4333 18.5367L66.9277 10.2227H74.8469L78.5643 14.2611L82.144 10.2227H89.7869L82.3169 18.5024L89.8895 26.8496H81.9378L78.254 22.778L74.6051 26.8496H66.9277Z" fill="#FF6600"/>
<path d="M66.9274 6.49599H58.4267V10.2231H66.9274V15.8403H58.4267V20.9961H66.9274V26.8501H52.1787V0.658203H66.9274V6.49599Z" fill="#FF6600"/>
<path d="M45.9571 0.658203V11.3772H45.8887C44.5113 9.8166 42.7903 9.27429 40.7935 9.27429C36.7032 9.27429 33.622 12.0152 32.5405 15.639C31.3071 11.646 28.1262 9.19946 23.4094 9.19946C19.5789 9.19946 16.5541 10.8943 14.9756 13.656V10.2235H7.05796V6.49676H15.6983V0.658203H0V26.8505H7.05796V15.8403H14.0928C13.8831 16.6491 13.7712 17.5151 13.7712 18.4288C13.7712 23.8925 18.0055 27.7261 23.4094 27.7261C27.9536 27.7261 30.9483 25.6232 32.5323 21.7892H26.4839C25.6657 22.9409 25.045 23.283 23.4094 23.283C21.5127 23.283 19.8775 21.6519 19.8775 19.7183H32.1934C32.7275 24.0579 36.1569 27.8005 40.8631 27.8005C42.8932 27.8005 44.7519 26.8162 45.8887 25.1541H45.9571V26.8497H52.1789V0.658203H45.9571ZM20.0739 15.9186C20.4664 14.255 21.7753 13.1677 23.4094 13.1677C25.2082 13.1677 26.4506 14.2215 26.7773 15.9186C26.9151 15.9186 20.0739 15.9186 20.0739 15.9186ZM42.1814 22.8622C39.888 22.8622 38.4629 20.7558 38.4629 18.5565C38.4629 16.2056 39.7025 13.9449 42.1814 13.9449C44.7519 13.9449 45.776 16.2056 45.776 18.5565C45.7756 20.7859 44.6905 22.8622 42.1814 22.8622Z" fill="#652C8F"/>
</g>
<defs>
<clipPath id="clip0_505_7462">
<rect width="90" height="27" fill="white" transform="translate(0 0.658203)"/>
</clipPath>
</defs>
</svg>
