<svg width="32" height="33" viewBox="0 0 32 33" fill="none" xmlns="http://www.w3.org/2000/svg">
<circle cx="16" cy="16.3086" r="16" fill="#4E4D4D"/>
<path d="M16.0001 4.30859C9.3735 4.30859 4 9.81707 4 16.6124C4 22.0485 7.43839 26.6605 12.2064 28.2874C12.8061 28.4013 13.0263 28.0205 13.0263 27.6956C13.0263 27.4022 13.0152 26.433 13.01 25.4049C9.67157 26.1491 8.96712 23.9532 8.96712 23.9532C8.42125 22.531 7.63473 22.1529 7.63473 22.1529C6.54596 21.3892 7.7168 21.4049 7.7168 21.4049C8.92181 21.4917 9.55632 22.6728 9.55632 22.6728C10.6266 24.5538 12.3636 24.01 13.0484 23.6956C13.1561 22.9004 13.4671 22.3576 13.8102 22.0504C11.1449 21.7393 8.34295 20.6843 8.34295 15.9698C8.34295 14.6265 8.81172 13.5289 9.57937 12.6673C9.45477 12.3574 9.04402 11.106 9.69562 9.41121C9.69562 9.41121 10.7033 9.08053 12.9965 10.6724C13.9537 10.3998 14.9803 10.2631 16.0001 10.2584C17.0199 10.2631 18.0473 10.3998 19.0063 10.6724C21.2967 9.08053 22.303 9.41121 22.303 9.41121C22.9562 11.106 22.5452 12.3574 22.4206 12.6673C23.1901 13.5289 23.6557 14.6265 23.6557 15.9698C23.6557 20.6955 20.8484 21.736 18.1762 22.0406C18.6067 22.4224 18.9902 23.1712 18.9902 24.3191C18.9902 25.9654 18.9763 27.2903 18.9763 27.6956C18.9763 28.023 19.1923 28.4066 19.8006 28.2858C24.566 26.6571 28 22.0467 28 16.6124C28 9.81707 22.6273 4.30859 16.0001 4.30859Z" fill="white"/>
<path d="M8.58043 21.8897C8.55405 21.9503 8.46043 21.9684 8.37514 21.9269C8.28827 21.8871 8.23947 21.8046 8.26764 21.7439C8.29342 21.6816 8.38724 21.6642 8.47392 21.706C8.56099 21.7457 8.61058 21.829 8.58043 21.8897Z" fill="white"/>
<path d="M9.06559 22.4401C9.00846 22.4939 8.89679 22.4689 8.82103 22.3838C8.74268 22.2989 8.728 22.1853 8.78592 22.1306C8.84483 22.0768 8.95312 22.102 9.03167 22.1869C9.11002 22.2728 9.12529 22.3856 9.06559 22.4401Z" fill="white"/>
<path d="M9.53784 23.1417C9.46445 23.1936 9.34445 23.145 9.27027 23.0366C9.19688 22.9283 9.19688 22.7984 9.27186 22.7463C9.34624 22.6943 9.46445 22.7411 9.53963 22.8486C9.61282 22.9588 9.61282 23.0887 9.53784 23.1417Z" fill="white"/>
<path d="M10.1848 23.8196C10.1192 23.8932 9.97936 23.8734 9.87701 23.773C9.77229 23.6747 9.74313 23.5353 9.80898 23.4617C9.87543 23.3878 10.0161 23.4086 10.1192 23.5083C10.2231 23.6063 10.2549 23.7467 10.1848 23.8196Z" fill="white"/>
<path d="M11.0774 24.2131C11.0485 24.3086 10.9138 24.3519 10.7781 24.3114C10.6426 24.2696 10.554 24.1579 10.5813 24.0614C10.6095 23.9654 10.7448 23.9202 10.8814 23.9636C11.0167 24.0052 11.1056 24.1161 11.0774 24.2131Z" fill="white"/>
<path d="M12.0576 24.2862C12.061 24.3866 11.946 24.47 11.8036 24.4718C11.6604 24.475 11.5445 24.3937 11.5429 24.2949C11.5429 24.1934 11.6554 24.1109 11.7986 24.1084C11.941 24.1056 12.0576 24.1863 12.0576 24.2862Z" fill="white"/>
<path d="M12.9699 24.1282C12.9869 24.2263 12.8879 24.3269 12.7465 24.3538C12.6075 24.3796 12.4787 24.3191 12.4611 24.2218C12.4438 24.1214 12.5446 24.0207 12.6834 23.9947C12.8251 23.9697 12.9518 24.0286 12.9699 24.1282Z" fill="white"/>
</svg>
