<svg width="90" height="31" viewBox="0 0 90 31" fill="none" xmlns="http://www.w3.org/2000/svg">
<path d="M38.2995 15.547C38.2995 19.755 34.9939 22.8558 30.9373 22.8558C26.8807 22.8558 23.5752 19.755 23.5752 15.547C23.5752 11.3094 26.8807 8.23828 30.9373 8.23828C34.9939 8.23828 38.2995 11.3094 38.2995 15.547ZM35.0767 15.547C35.0767 12.9175 33.1609 11.1183 30.9373 11.1183C28.7138 11.1183 26.798 12.9175 26.798 15.547C26.798 18.1502 28.7138 19.9758 30.9373 19.9758C33.1609 19.9758 35.0767 18.1469 35.0767 15.547Z" fill="#EA4335"/>
<path d="M54.1823 15.547C54.1823 19.755 50.8768 22.8558 46.8201 22.8558C42.7635 22.8558 39.458 19.755 39.458 15.547C39.458 11.3127 42.7635 8.23828 46.8201 8.23828C50.8768 8.23828 54.1823 11.3094 54.1823 15.547ZM50.9595 15.547C50.9595 12.9175 49.0437 11.1183 46.8201 11.1183C44.5966 11.1183 42.6808 12.9175 42.6808 15.547C42.6808 18.1502 44.5966 19.9758 46.8201 19.9758C49.0437 19.9758 50.9595 18.1469 50.9595 15.547Z" fill="#FBBC05"/>
<path d="M69.4021 8.67984V21.8013C69.4021 27.1988 66.2058 29.4033 62.4271 29.4033C58.8701 29.4033 56.7293 27.0341 55.922 25.0965L58.7279 23.9333C59.2275 25.1229 60.4518 26.5266 62.4238 26.5266C64.8426 26.5266 66.3415 25.0405 66.3415 22.2429V21.1917H66.229C65.5077 22.0781 64.1179 22.8525 62.3643 22.8525C58.6948 22.8525 55.333 19.6693 55.333 15.5734C55.333 11.4478 58.6948 8.23828 62.3643 8.23828C64.1146 8.23828 65.5043 9.01265 66.229 9.8727H66.3415V8.68313H69.4021V8.67984ZM66.5698 15.5734C66.5698 12.9998 64.8459 11.1183 62.6521 11.1183C60.4286 11.1183 58.5657 12.9998 58.5657 15.5734C58.5657 18.1206 60.4286 19.9758 62.6521 19.9758C64.8459 19.9758 66.5698 18.1206 66.5698 15.5734Z" fill="#4285F4"/>
<path d="M74.4481 0.988281V22.407H71.3047V0.988281H74.4481Z" fill="#34A853"/>
<path d="M86.6977 17.9519L89.1992 19.6127C88.3918 20.8022 86.4462 22.8519 83.0845 22.8519C78.9154 22.8519 75.8018 19.6423 75.8018 15.5431C75.8018 11.1968 78.9418 8.23438 82.7238 8.23438C86.5323 8.23438 88.3951 11.2528 89.004 12.8839L89.3382 13.7143L79.5275 17.7608C80.2786 19.2271 81.4466 19.9752 83.0845 19.9752C84.7257 19.9752 85.8639 19.1711 86.6977 17.9519ZM78.9981 15.3223L85.5562 12.6104C85.1955 11.6976 84.1102 11.0617 82.833 11.0617C81.1951 11.0617 78.9154 12.5017 78.9981 15.3223V15.3223Z" fill="#EA4335"/>
<path d="M11.6769 13.6448V10.544H22.1691C22.2717 11.0845 22.3247 11.7237 22.3247 12.4157C22.3247 14.7421 21.6861 17.6188 19.628 19.6684C17.6261 21.7444 15.0684 22.8516 11.6802 22.8516C5.40002 22.8516 0.119141 17.7572 0.119141 11.5029C0.119141 5.24867 5.40002 0.154297 11.6802 0.154297C15.1544 0.154297 17.6294 1.51192 19.489 3.28144L17.2919 5.46945C15.9585 4.22386 14.1519 3.25508 11.6769 3.25508C7.09083 3.25508 3.50407 6.93581 3.50407 11.5029C3.50407 16.0701 7.09083 19.7508 11.6769 19.7508C14.6515 19.7508 16.3456 18.5613 17.4309 17.4804C18.3111 16.6039 18.8901 15.3517 19.1184 13.6415L11.6769 13.6448V13.6448Z" fill="#4285F4"/>
</svg>
