<svg width="90" height="27" viewBox="0 0 90 27" fill="none" xmlns="http://www.w3.org/2000/svg">
<g clip-path="url(#clip0_505_7468)">
<path d="M9.74652 4.55664V11.8099H3.13764V4.55664H0V21.871H3.13764V14.8532H9.74652V21.871H12.8842V4.55664H9.74652Z" fill="#33475B"/>
<path d="M22.9255 16.2734C22.9255 16.9673 22.652 17.6328 22.1652 18.1235C21.6784 18.6141 21.0182 18.8898 20.3298 18.8898C19.6413 18.8898 18.9811 18.6141 18.4943 18.1235C18.0075 17.6328 17.734 16.9673 17.734 16.2734V8.85742H14.7578V16.2734C14.7578 17.7615 15.3443 19.1886 16.3882 20.2409C17.4322 21.2931 18.848 21.8842 20.3244 21.8842C21.8007 21.8842 23.2166 21.2931 24.2606 20.2409C25.3045 19.1886 25.891 17.7615 25.891 16.2734V8.85742H22.9255V16.2734Z" fill="#33475B"/>
<path d="M44.9771 9.62202C44.9771 8.10194 45.9748 7.62004 47.0679 7.62004C47.9487 7.62004 49.1125 8.29563 49.8734 9.11533L51.8228 6.80035C50.8496 5.47396 48.8757 4.55664 47.26 4.55664C44.0317 4.55664 41.6965 6.46255 41.6965 9.62202C41.6965 15.4839 48.805 13.6244 48.805 16.9048C48.805 17.9166 47.8304 18.8107 46.7143 18.8107C44.9541 18.8107 44.3837 17.9429 43.5751 17.0256L41.4121 19.2926C42.7957 21.0048 44.5021 21.8741 46.5467 21.8741C49.6136 21.8741 52.081 19.9449 52.081 16.9296C52.081 10.4216 44.9725 12.4437 44.9725 9.62202" fill="#33475B"/>
<path d="M88.9528 19.1054C87.1941 19.1054 86.6945 18.3384 86.6945 17.1639V11.9652H89.4278V9.33104H86.6945V5.85547L83.6768 7.2206V17.81C83.6768 20.5186 85.5307 21.8837 88.0734 21.8837C88.4722 21.891 88.8708 21.8588 89.2633 21.7876L89.9997 19.0558C89.6676 19.0791 89.2864 19.1023 88.9528 19.1023" fill="#33475B"/>
<path d="M34.2546 8.94458C32.7803 8.94458 31.7518 9.37535 30.7572 10.3593V4.66016H27.7764V15.2232C27.7764 19.1776 30.6127 21.8862 33.7995 21.8862C37.3353 21.8862 40.4453 19.1296 40.4453 15.4169C40.4453 11.7508 37.5828 8.94613 34.2546 8.94613V8.94458ZM34.2361 18.8631C33.5672 18.8631 32.9133 18.6631 32.3571 18.2885C31.801 17.914 31.3675 17.3816 31.1115 16.7587C30.8555 16.1358 30.7885 15.4503 30.919 14.7891C31.0495 14.1278 31.3716 13.5204 31.8446 13.0436C32.3176 12.5669 32.9203 12.2422 33.5763 12.1107C34.2324 11.9791 34.9124 12.0466 35.5304 12.3047C36.1484 12.5627 36.6766 12.9996 37.0482 13.5602C37.4198 14.1208 37.6182 14.7799 37.6182 15.4541C37.6182 16.3582 37.2619 17.2253 36.6276 17.8646C35.9933 18.5039 35.1331 18.8631 34.2361 18.8631Z" fill="#33475B"/>
<path d="M66.6201 15.2583C66.6201 11.5395 63.5163 8.78906 59.9743 8.78906C56.7875 8.78906 53.9512 11.4976 53.9512 15.452V26.0213H56.932V20.3144C57.9251 21.2968 58.9551 21.7291 60.4278 21.7291C63.7561 21.7291 66.6186 18.926 66.6186 15.2583H66.6201ZM63.7976 15.2211C63.7976 15.8953 63.5992 16.5544 63.2276 17.115C62.856 17.6756 62.3278 18.1126 61.7098 18.3706C61.0918 18.6286 60.4118 18.6961 59.7557 18.5646C59.0997 18.433 58.497 18.1084 58.0241 17.6316C57.5511 17.1549 57.2289 16.5474 57.0985 15.8862C56.968 15.2249 57.0349 14.5395 57.2909 13.9166C57.5469 13.2937 57.9804 12.7613 58.5366 12.3867C59.0927 12.0121 59.7466 11.8122 60.4155 11.8122C61.3125 11.8122 62.1728 12.1713 62.807 12.8106C63.4413 13.4499 63.7976 14.317 63.7976 15.2211Z" fill="#33475B"/>
<path d="M76.2507 8.64454V5.62608C76.6464 5.43969 76.9815 5.14383 77.2169 4.77295C77.4523 4.40207 77.5784 3.97142 77.5804 3.53113V3.4614C77.5804 2.84496 77.3375 2.25377 76.905 1.81788C76.4726 1.382 75.886 1.13712 75.2745 1.13712H75.2053C74.5937 1.13712 74.0072 1.382 73.5747 1.81788C73.1423 2.25377 72.8993 2.84496 72.8993 3.4614V3.53113C72.9014 3.97142 73.0274 4.40207 73.2628 4.77295C73.4983 5.14383 73.8333 5.43969 74.2291 5.62608V8.64454C73.0917 8.81994 72.0204 9.29515 71.1237 10.0221L62.9115 3.57451C62.9696 3.3619 63.0006 3.14268 63.0037 2.92216C63.0046 2.40417 62.8531 1.89754 62.5683 1.46636C62.2835 1.03517 61.8783 0.698805 61.4038 0.499799C60.9293 0.300793 60.407 0.24809 59.9028 0.348356C59.3986 0.448622 58.9352 0.697353 58.5713 1.06309C58.2074 1.42882 57.9592 1.89513 57.8583 2.40303C57.7573 2.91092 57.808 3.4376 58.0041 3.91642C58.2001 4.39525 58.5326 4.80472 58.9596 5.09305C59.3865 5.38137 59.8887 5.53559 60.4026 5.5362C60.852 5.53418 61.293 5.41344 61.6816 5.18601L69.7694 11.5282C69.0427 12.6345 68.6635 13.9359 68.6813 15.2626C68.6991 16.5893 69.1131 17.8798 69.8693 18.9659L67.4096 21.4451C67.2107 21.3811 67.0035 21.3472 66.7947 21.3444C66.3728 21.3447 65.9605 21.4711 65.6098 21.7075C65.2591 21.944 64.9859 22.2799 64.8246 22.6728C64.6633 23.0657 64.6212 23.498 64.7035 23.9151C64.7859 24.3322 64.9891 24.7152 65.2874 25.0159C65.5857 25.3166 65.9658 25.5214 66.3796 25.6045C66.7933 25.6875 67.2223 25.645 67.6121 25.4825C68.0019 25.3199 68.3352 25.0444 68.5698 24.691C68.8043 24.3375 68.9297 23.9219 68.93 23.4967C68.9274 23.2862 68.8937 23.0773 68.8301 22.8769L71.2636 20.424C72.0572 21.0395 72.9799 21.4638 73.9612 21.6643C74.9426 21.8649 75.9564 21.8364 76.9251 21.581C77.8938 21.3257 78.7917 20.8503 79.55 20.1912C80.3082 19.5321 80.9068 18.7068 81.2998 17.7785C81.6928 16.8503 81.8698 15.8437 81.8172 14.8358C81.7647 13.828 81.484 12.8456 80.9966 11.964C80.5093 11.0823 79.8282 10.3248 79.0056 9.74947C78.183 9.1741 77.2406 8.79614 76.2507 8.64454V8.64454ZM75.2422 18.5708C74.5765 18.5702 73.926 18.3706 73.3727 17.9975C72.8195 17.6243 72.3885 17.0942 72.1341 16.4741C71.8797 15.8541 71.8134 15.172 71.9435 14.514C72.0736 13.8559 72.3944 13.2516 72.8652 12.7772C73.336 12.3029 73.9357 11.9799 74.5886 11.849C75.2415 11.7182 75.9182 11.7853 76.5333 12.042C77.1483 12.2987 77.674 12.7334 78.044 13.2912C78.414 13.849 78.6117 14.5048 78.612 15.1758C78.612 16.0758 78.2573 16.9389 77.6259 17.5753C76.9945 18.2117 76.1382 18.5692 75.2453 18.5692" fill="#FF7A59"/>
</g>
<defs>
<clipPath id="clip0_505_7468">
<rect width="90" height="25.7143" fill="white" transform="translate(0 0.300781)"/>
</clipPath>
</defs>
</svg>
