<svg width="33" height="33" viewBox="0 0 33 33" fill="none" xmlns="http://www.w3.org/2000/svg">
<path fill-rule="evenodd" clip-rule="evenodd" d="M0.5 16.5C0.5 7.66344 7.66344 0.5 16.5 0.5C25.3366 0.5 32.5 7.66344 32.5 16.5C32.5 25.3366 25.3366 32.5 16.5 32.5C7.66344 32.5 0.5 25.3366 0.5 16.5Z" fill="#E5F4F2"/>
<path fill-rule="evenodd" clip-rule="evenodd" d="M16.5009 7.9668C14.1834 7.9668 13.8925 7.97693 12.9823 8.01835C12.0739 8.05995 11.4538 8.20378 10.9112 8.4148C10.3499 8.63276 9.87384 8.92432 9.39952 9.39881C8.92485 9.87313 8.63329 10.3492 8.41462 10.9103C8.20307 11.4531 8.05906 12.0733 8.01818 12.9814C7.97746 13.8917 7.9668 14.1827 7.9668 16.5002C7.9668 18.8178 7.97711 19.1077 8.01835 20.0179C8.06013 20.9264 8.20395 21.5465 8.4148 22.0891C8.63294 22.6503 8.9245 23.1264 9.39899 23.6007C9.87313 24.0754 10.3492 24.3677 10.9101 24.5856C11.4531 24.7967 12.0733 24.9405 12.9816 24.9821C13.8918 25.0235 14.1825 25.0336 16.4999 25.0336C18.8176 25.0336 19.1075 25.0235 20.0178 24.9821C20.9262 24.9405 21.547 24.7967 22.09 24.5856C22.651 24.3677 23.1264 24.0754 23.6006 23.6007C24.0752 23.1264 24.3668 22.6503 24.5855 22.0893C24.7952 21.5465 24.9392 20.9262 24.9819 20.0181C25.0228 19.1079 25.0335 18.8178 25.0335 16.5002C25.0335 14.1827 25.0228 13.8918 24.9819 12.9816C24.9392 12.0732 24.7952 11.4531 24.5855 10.9105C24.3668 10.3492 24.0752 9.87313 23.6006 9.39881C23.1259 8.92414 22.6512 8.63258 22.0894 8.4148C21.5454 8.20378 20.925 8.05995 20.0165 8.01835C19.1063 7.97693 18.8165 7.9668 16.4983 7.9668H16.5009ZM15.7354 9.50457C15.9626 9.50421 16.2161 9.50457 16.5009 9.50457C18.7793 9.50457 19.0494 9.51274 19.9491 9.55363C20.7811 9.59168 21.2327 9.7307 21.5335 9.8475C21.9317 10.0022 22.2156 10.1871 22.5141 10.4857C22.8128 10.7844 22.9977 11.0688 23.1527 11.4671C23.2695 11.7675 23.4087 12.2191 23.4466 13.0511C23.4875 13.9507 23.4963 14.2209 23.4963 16.4982C23.4963 18.7756 23.4875 19.0458 23.4466 19.9454C23.4085 20.7774 23.2695 21.229 23.1527 21.5294C22.998 21.9276 22.8128 22.2112 22.5141 22.5097C22.2154 22.8084 21.9319 22.9932 21.5335 23.1479C21.233 23.2652 20.7811 23.4039 19.9491 23.442C19.0495 23.4828 18.7793 23.4917 16.5009 23.4917C14.2223 23.4917 13.9522 23.4828 13.0527 23.442C12.2207 23.4036 11.7691 23.2645 11.4681 23.1477C11.0699 22.9931 10.7855 22.8082 10.4868 22.5095C10.1881 22.2108 10.0032 21.9271 9.8482 21.5287C9.7314 21.2282 9.5922 20.7767 9.55433 19.9447C9.51344 19.0451 9.50527 18.7749 9.50527 16.4961C9.50527 14.2173 9.51344 13.9485 9.55433 13.049C9.59238 12.217 9.7314 11.7654 9.8482 11.4646C10.0029 11.0664 10.1881 10.7819 10.4868 10.4832C10.7855 10.1846 11.0699 9.99968 11.4681 9.84466C11.7689 9.72732 12.2207 9.58866 13.0527 9.55043C13.8399 9.51488 14.145 9.50421 15.7354 9.50243V9.50457ZM21.056 10.9215C20.4906 10.9215 20.032 11.3796 20.032 11.9451C20.032 12.5105 20.4906 12.9691 21.056 12.9691C21.6213 12.9691 22.08 12.5105 22.08 11.9451C22.08 11.3798 21.6213 10.9215 21.056 10.9215ZM16.5009 12.1179C14.0808 12.1179 12.1187 14.0801 12.1187 16.5002C12.1187 18.9203 14.0808 20.8816 16.5009 20.8816C18.9211 20.8816 20.8825 18.9203 20.8825 16.5002C20.8825 14.0801 18.9211 12.1179 16.5009 12.1179ZM16.5009 13.6557C18.0718 13.6557 19.3454 14.9292 19.3454 16.5002C19.3454 18.0711 18.0718 19.3447 16.5009 19.3447C14.9299 19.3447 13.6564 18.0711 13.6564 16.5002C13.6564 14.9292 14.9299 13.6557 16.5009 13.6557Z" fill="#2D2D2D"/>
</svg>
