<svg width="32" height="33" viewBox="0 0 32 33" fill="none" xmlns="http://www.w3.org/2000/svg">
<path fill-rule="evenodd" clip-rule="evenodd" d="M0 16.3086C0 7.47204 7.16344 0.308594 16 0.308594C24.8366 0.308594 32 7.47204 32 16.3086C32 25.1452 24.8366 32.3086 16 32.3086C7.16344 32.3086 0 25.1452 0 16.3086Z" fill="#4E4D4D"/>
<path fill-rule="evenodd" clip-rule="evenodd" d="M16.0009 7.77539C13.6834 7.77539 13.3925 7.78552 12.4823 7.82695C11.5739 7.86855 10.9538 8.01237 10.4112 8.2234C9.84993 8.44135 9.37384 8.73291 8.89952 9.20741C8.42485 9.68172 8.13329 10.1578 7.91462 10.7189C7.70307 11.2616 7.55906 11.8819 7.51818 12.79C7.47746 13.7003 7.4668 13.9913 7.4668 16.3088C7.4668 18.6263 7.47711 18.9163 7.51835 19.8265C7.56013 20.735 7.70395 21.3551 7.9148 21.8977C8.13294 22.4589 8.4245 22.935 8.89899 23.4093C9.37313 23.884 9.84922 24.1763 10.4101 24.3942C10.9531 24.6053 11.5733 24.7491 12.4816 24.7907C13.3918 24.8321 13.6825 24.8422 15.9999 24.8422C18.3176 24.8422 18.6075 24.8321 19.5178 24.7907C20.4262 24.7491 21.047 24.6053 21.59 24.3942C22.151 24.1763 22.6264 23.884 23.1006 23.4093C23.5752 22.935 23.8668 22.4589 24.0855 21.8978C24.2952 21.3551 24.4392 20.7348 24.4819 19.8267C24.5228 18.9165 24.5335 18.6263 24.5335 16.3088C24.5335 13.9913 24.5228 13.7004 24.4819 12.7902C24.4392 11.8817 24.2952 11.2616 24.0855 10.7191C23.8668 10.1578 23.5752 9.68172 23.1006 9.20741C22.6259 8.73273 22.1512 8.44118 21.5894 8.2234C21.0454 8.01237 20.425 7.86855 19.5165 7.82695C18.6063 7.78552 18.3165 7.77539 15.9983 7.77539H16.0009ZM15.2354 9.31316C15.4626 9.3128 15.7161 9.31316 16.0009 9.31316C18.2793 9.31316 18.5494 9.32134 19.4491 9.36223C20.2811 9.40027 20.7327 9.5393 21.0335 9.6561C21.4317 9.81077 21.7156 9.99566 22.0141 10.2943C22.3128 10.593 22.4977 10.8774 22.6527 11.2757C22.7695 11.5761 22.9087 12.0277 22.9466 12.8597C22.9875 13.7593 22.9963 14.0295 22.9963 16.3068C22.9963 18.5842 22.9875 18.8544 22.9466 19.754C22.9085 20.586 22.7695 21.0375 22.6527 21.338C22.498 21.7362 22.3128 22.0198 22.0141 22.3183C21.7154 22.6169 21.4319 22.8018 21.0335 22.9565C20.733 23.0738 20.2811 23.2125 19.4491 23.2506C18.5495 23.2914 18.2793 23.3003 16.0009 23.3003C13.7223 23.3003 13.4522 23.2914 12.5527 23.2506C11.7207 23.2122 11.2691 23.0731 10.9681 22.9563C10.5699 22.8017 10.2855 22.6168 9.98679 22.3181C9.68812 22.0194 9.50323 21.7357 9.3482 21.3373C9.2314 21.0368 9.0922 20.5853 9.05433 19.7533C9.01344 18.8537 9.00527 18.5835 9.00527 16.3047C9.00527 14.0259 9.01344 13.7571 9.05433 12.8576C9.09238 12.0255 9.2314 11.574 9.3482 11.2732C9.50287 10.875 9.68812 10.5905 9.98679 10.2918C10.2855 9.99317 10.5699 9.80828 10.9681 9.65325C11.2689 9.53592 11.7207 9.39725 12.5527 9.35903C13.3399 9.32347 13.645 9.3128 15.2354 9.31103V9.31316ZM20.556 10.7301C19.9906 10.7301 19.532 11.1882 19.532 11.7537C19.532 12.3191 19.9906 12.7777 20.556 12.7777C21.1213 12.7777 21.58 12.3191 21.58 11.7537C21.58 11.1884 21.1213 10.7301 20.556 10.7301ZM16.0009 11.9265C13.5808 11.9265 11.6187 13.8887 11.6187 16.3088C11.6187 18.7289 13.5808 20.6902 16.0009 20.6902C18.4211 20.6902 20.3825 18.7289 20.3825 16.3088C20.3825 13.8887 18.4211 11.9265 16.0009 11.9265ZM16.0009 13.4643C17.5718 13.4643 18.8454 14.7378 18.8454 16.3088C18.8454 17.8797 17.5718 19.1533 16.0009 19.1533C14.4299 19.1533 13.1564 17.8797 13.1564 16.3088C13.1564 14.7378 14.4299 13.4643 16.0009 13.4643Z" fill="white"/>
</svg>
