<svg width="90" height="20" viewBox="0 0 90 20" fill="none" xmlns="http://www.w3.org/2000/svg">
<g clip-path="url(#clip0_505_7456)">
<path d="M31.7683 11.6154L31.2319 13.1319H31.1872C31.0978 12.79 30.9339 12.2696 30.6657 11.6451L27.7899 4.43388H24.9736V15.9272H26.8362V8.83495C26.8362 8.38889 26.8362 7.88337 26.8213 7.25889C26.8064 6.94665 26.7766 6.70876 26.7617 6.53033H26.8064C26.8958 6.97639 27.0001 7.3035 27.0746 7.51165L30.5316 15.8975H31.8428L35.27 7.43731C35.3445 7.24402 35.419 6.85744 35.4935 6.53033H35.5382C35.4935 7.37784 35.4637 8.13613 35.4488 8.59705V15.8826H37.4306V4.40414H34.7187L31.7683 11.6154V11.6154ZM39.3081 7.64547H41.2452V15.8826H39.3081V7.64547ZM40.2915 4.16625C39.9637 4.16625 39.6955 4.2852 39.472 4.49335C39.2485 4.70151 39.1293 4.96915 39.1293 5.29625C39.1293 5.60849 39.2485 5.87612 39.472 6.08428C39.6955 6.29244 39.9637 6.39652 40.2915 6.39652C40.6193 6.39652 40.9024 6.27757 41.111 6.08428C41.3346 5.87612 41.4538 5.60849 41.4538 5.29625C41.4538 4.98401 41.3346 4.71638 41.111 4.49335C40.9173 4.2852 40.6342 4.16625 40.2915 4.16625V4.16625ZM48.1144 7.57113C47.7567 7.49679 47.3842 7.45218 47.0266 7.45218C46.1475 7.45218 45.3428 7.64547 44.6723 8.03205C44.0018 8.41863 43.4654 8.9539 43.1226 9.62298C42.765 10.3069 42.5862 11.095 42.5862 12.0019C42.5862 12.79 42.765 13.4888 43.1077 14.1281C43.4505 14.7526 43.9273 15.2581 44.568 15.6001C45.1789 15.9421 45.8942 16.1205 46.6988 16.1205C47.6226 16.1205 48.4124 15.9272 49.0382 15.5704L49.0531 15.5555V13.7713L48.9786 13.8308C48.6955 14.0389 48.3677 14.2173 48.0399 14.3214C47.6971 14.4404 47.3842 14.4998 47.116 14.4998C46.3412 14.4998 45.7303 14.2768 45.2981 13.7862C44.8511 13.3104 44.6276 12.6561 44.6276 11.8384C44.6276 10.9909 44.8511 10.3218 45.313 9.83114C45.775 9.34048 46.3859 9.08771 47.1309 9.08771C47.7567 9.08771 48.3975 9.29587 48.9786 9.71219L49.0531 9.77166V7.88337L49.0382 7.8685C48.7849 7.76442 48.5018 7.64547 48.1144 7.57113V7.57113ZM54.5067 7.51165C54.0299 7.51165 53.5829 7.66034 53.1955 7.97258C52.8677 8.24021 52.6442 8.62679 52.4505 9.08771H52.4356V7.64547H50.4985V15.8826H52.4356V11.6748C52.4356 10.9611 52.5846 10.3664 52.9124 9.93522C53.2402 9.48916 53.6574 9.26613 54.164 9.26613C54.3428 9.26613 54.5216 9.31074 54.7452 9.34048C54.9538 9.39995 55.1028 9.45942 55.2071 9.53377L55.2816 9.59324V7.66034L55.2369 7.64547C55.1028 7.55626 54.8346 7.51165 54.5067 7.51165V7.51165ZM59.7816 7.46705C58.4256 7.46705 57.3379 7.8685 56.5779 8.65653C55.8031 9.44456 55.4306 10.53 55.4306 11.8979C55.4306 13.1765 55.818 14.2173 56.563 14.9756C57.3081 15.7191 58.3213 16.1056 59.5879 16.1056C60.914 16.1056 61.972 15.7042 62.7319 14.9013C63.5067 14.0984 63.8793 13.0279 63.8793 11.7046C63.8793 10.3961 63.5216 9.35535 62.7915 8.59705C62.0912 7.83876 61.063 7.46705 59.7816 7.46705V7.46705ZM61.3312 13.801C60.9736 14.2619 60.4074 14.485 59.7071 14.485C59.0067 14.485 58.4405 14.2619 58.0382 13.7713C57.6359 13.3104 57.4422 12.6413 57.4422 11.7938C57.4422 10.9165 57.6508 10.2475 58.0382 9.77166C58.4405 9.29587 58.9918 9.05798 59.6922 9.05798C60.3776 9.05798 60.914 9.281 61.3014 9.74192C61.6889 10.2028 61.8975 10.8719 61.8975 11.7492C61.8677 12.6413 61.7038 13.3401 61.3312 13.801V13.801ZM68.2005 11.0652C67.5895 10.8125 67.2021 10.6192 67.0233 10.4556C66.8743 10.3069 66.7998 10.0988 66.7998 9.83114C66.7998 9.60811 66.8892 9.38508 67.1127 9.2364C67.3362 9.08771 67.5895 9.01337 67.962 9.01337C68.2899 9.01337 68.6326 9.07284 68.9604 9.16205C69.2882 9.25127 69.5862 9.38508 69.8246 9.5635L69.8991 9.62298V7.80902L69.8544 7.79416C69.6309 7.70494 69.3329 7.61573 68.9753 7.54139C68.6177 7.48192 68.2899 7.45218 68.0216 7.45218C67.0978 7.45218 66.3379 7.67521 65.7418 8.16587C65.1458 8.62679 64.8627 9.25127 64.8627 9.97982C64.8627 10.3664 64.9223 10.7084 65.0564 10.9909C65.1905 11.2734 65.3842 11.541 65.6524 11.764C65.9207 11.9722 66.3081 12.2101 66.8445 12.4331C67.2915 12.6264 67.6342 12.7751 67.8428 12.894C68.0514 13.013 68.1855 13.1468 68.2899 13.2509C68.3644 13.3698 68.4091 13.5185 68.4091 13.7118C68.4091 14.2619 67.9918 14.5296 67.1425 14.5296C66.8147 14.5296 66.472 14.4701 66.0697 14.3363C65.6673 14.2025 65.2948 14.0092 64.9819 13.7862L64.9074 13.7267V15.615L64.9521 15.6298C65.2352 15.7637 65.5779 15.8529 65.9952 15.9569C66.4124 16.0313 66.7849 16.0908 67.1127 16.0908C68.111 16.0908 68.9306 15.8677 69.5117 15.3771C70.1077 14.9013 70.4207 14.2917 70.4207 13.5036C70.4207 12.9535 70.2716 12.4629 69.9438 12.0911C69.5117 11.7343 68.9753 11.3626 68.2005 11.0652V11.0652ZM75.5316 7.46705C74.1756 7.46705 73.0879 7.8685 72.3279 8.65653C71.568 9.44456 71.1806 10.53 71.1806 11.8979C71.1806 13.1765 71.568 14.2173 72.313 14.9756C73.0581 15.7191 74.0713 16.1056 75.3379 16.1056C76.664 16.1056 77.722 15.7042 78.4819 14.9013C79.2567 14.0984 79.6293 13.0279 79.6293 11.7046C79.6293 10.3961 79.2716 9.35535 78.5415 8.59705C77.8412 7.83876 76.813 7.46705 75.5316 7.46705V7.46705ZM77.0663 13.801C76.7087 14.2619 76.1425 14.485 75.4422 14.485C74.7269 14.485 74.1756 14.2619 73.7733 13.7713C73.371 13.3104 73.1773 12.6413 73.1773 11.7938C73.1773 10.9165 73.3859 10.2475 73.7733 9.77166C74.1756 9.29587 74.7269 9.05798 75.4273 9.05798C76.0978 9.05798 76.6491 9.281 77.0365 9.74192C77.424 10.2028 77.6326 10.8719 77.6326 11.7492C77.6326 12.6413 77.4389 13.3401 77.0663 13.801V13.801ZM89.9852 9.2364V7.64547H88.0332V5.20704L87.9736 5.22191L86.1259 5.77204L86.0812 5.78691V7.64547H83.1607V6.60468C83.1607 6.12889 83.2799 5.75717 83.4885 5.51928C83.6971 5.28138 84.0101 5.16244 84.3975 5.16244C84.6657 5.16244 84.9488 5.22191 85.2617 5.35573L85.3362 5.40033V3.72019L85.2915 3.70533C85.0233 3.61611 84.6657 3.55664 84.2038 3.55664C83.6226 3.55664 83.116 3.69046 82.6541 3.91348C82.1922 4.16625 81.8495 4.50822 81.5961 4.96915C81.3428 5.4152 81.2087 5.92073 81.2087 6.5006V7.64547H79.8528V9.22153H81.2087V15.8826H83.1607V9.2364H86.0812V13.4739C86.0812 15.2135 86.9008 16.0908 88.5399 16.0908C88.8081 16.0908 89.0912 16.0462 89.3594 16.0016C89.6425 15.9421 89.8511 15.8677 89.9703 15.8083L89.9852 15.7934V14.2025L89.9107 14.2619C89.7915 14.3363 89.6872 14.3958 89.5084 14.4404C89.3594 14.485 89.2253 14.4998 89.121 14.4998C88.7336 14.4998 88.4654 14.4106 88.2716 14.1876C88.0928 13.9794 88.0034 13.6375 88.0034 13.1319V9.2364H89.9852V9.2364Z" fill="#737373"/>
<path d="M0 0.568359H9.13411V9.68273H0V0.568359Z" fill="#F25022"/>
<path d="M10.0879 0.568359H19.222V9.68273H10.0879V0.568359Z" fill="#7FBA00"/>
<path d="M0 10.6348H9.13411V19.7491H0V10.6348Z" fill="#00A4EF"/>
<path d="M10.0879 10.6348H19.222V19.7491H10.0879V10.6348Z" fill="#FFB900"/>
</g>
<defs>
<clipPath id="clip0_505_7456">
<rect width="90" height="19.1803" fill="white" transform="translate(0 0.568359)"/>
</clipPath>
</defs>
</svg>
