<svg width="82" height="82" viewBox="0 0 82 82" fill="none" xmlns="http://www.w3.org/2000/svg">
<path d="M0 40C0 21.1438 0 11.7157 5.85786 5.85786C11.7157 0 21.1438 0 40 0H42C60.8562 0 70.2843 0 76.1421 5.85786C82 11.7157 82 21.1438 82 40V42C82 60.8562 82 70.2843 76.1421 76.1421C70.2843 82 60.8562 82 42 82H40C21.1438 82 11.7157 82 5.85786 76.1421C0 70.2843 0 60.8562 0 42V40Z" fill="#F8D57E" fill-opacity="0.2"/>
<path opacity="0.2" d="M36.8003 52.5531L29.4503 45.2031L26.2182 54.1117C26.1289 54.3455 26.1091 54.6001 26.1613 54.8449C26.2135 55.0896 26.3355 55.314 26.5124 55.491C26.6894 55.6679 26.9138 55.7899 27.1585 55.8421C27.4033 55.8943 27.6579 55.8745 27.8917 55.7852L36.8003 52.5531Z" fill="#F8D57E"/>
<path opacity="0.2" d="M52.612 44.8448L52.6122 44.845C52.7604 44.992 52.8691 45.174 52.9281 45.3742C52.9871 45.5744 52.9946 45.7862 52.9498 45.9901C52.905 46.1939 52.8094 46.3832 52.6719 46.5402C52.5344 46.6972 52.3595 46.8169 52.1633 46.8882L45.4812 49.3166L32.6855 36.5209L35.1139 29.8388C35.1852 29.6426 35.3049 29.4677 35.4619 29.3302C35.6189 29.1926 35.8081 29.0971 36.012 29.0523C36.2158 29.0075 36.4277 29.015 36.6279 29.074C36.8281 29.133 37.0101 29.2417 37.1571 29.3899L37.1573 29.3901L52.612 44.8448Z" fill="#F8D57E" stroke="#F8D57E" stroke-width="0.148438"/>
<path d="M26.2182 54.1111L35.0448 29.8134C35.1204 29.6055 35.2473 29.4201 35.4137 29.2743C35.5801 29.1286 35.7807 29.0273 35.9967 28.9798C36.2128 28.9323 36.4374 28.9402 36.6496 29.0028C36.8617 29.0654 37.0547 29.1805 37.2104 29.3376L52.6651 44.7923C52.8222 44.9481 52.9374 45.141 53 45.3532C53.0625 45.5654 53.0704 45.79 53.023 46.006C52.9755 46.2221 52.8742 46.4227 52.7284 46.5891C52.5827 46.7555 52.3973 46.8824 52.1893 46.958L27.8917 55.7845C27.6579 55.8739 27.4033 55.8936 27.1585 55.8414C26.9138 55.7892 26.6894 55.6673 26.5124 55.4903C26.3355 55.3134 26.2135 55.089 26.1613 54.8442C26.1091 54.5995 26.1289 54.3448 26.2182 54.1111V54.1111Z" stroke="#F8D57E" stroke-width="2.375" stroke-linecap="round" stroke-linejoin="round"/>
<path d="M47.5625 31.8125C47.5625 31.8125 47.5625 27.875 51.5 27.875C55.4375 27.875 55.4375 23.9375 55.4375 23.9375" stroke="#F8D57E" stroke-width="2.375" stroke-linecap="round" stroke-linejoin="round"/>
<path d="M36.8002 52.5531L29.4502 45.2031" stroke="#F8D57E" stroke-width="2.375" stroke-linecap="round" stroke-linejoin="round"/>
<path d="M43.625 22.625V26.5625" stroke="#F8D57E" stroke-width="2.375" stroke-linecap="round" stroke-linejoin="round"/>
<path d="M55.4375 38.375L58.0625 41" stroke="#F8D57E" stroke-width="2.375" stroke-linecap="round" stroke-linejoin="round"/>
<path d="M55.4375 33.1289L59.375 31.8164" stroke="#F8D57E" stroke-width="2.375" stroke-linecap="round" stroke-linejoin="round"/>
<path d="M32.5996 36.5352L45.4621 49.3977" stroke="#F8D57E" stroke-width="2.375" stroke-linecap="round" stroke-linejoin="round"/>
</svg>
