<svg width="24" height="25" viewBox="0 0 24 25" fill="none" xmlns="http://www.w3.org/2000/svg">
<path opacity="0.2" d="M8.67187 12.0084C9.44364 13.6021 10.7324 14.8876 12.3281 15.6553C12.4458 15.711 12.576 15.7351 12.7059 15.7253C12.8358 15.7154 12.9608 15.6719 13.0687 15.599L15.4125 14.0334C15.516 13.9631 15.6357 13.9203 15.7603 13.9088C15.8849 13.8973 16.0104 13.9176 16.125 13.9678L20.5125 15.8521C20.6625 15.9145 20.7877 16.0245 20.869 16.1651C20.9504 16.3057 20.9832 16.4692 20.9625 16.6303C20.8234 17.7156 20.2937 18.7132 19.4723 19.4362C18.6509 20.1592 17.5943 20.5581 16.5 20.5584C13.1185 20.5584 9.87548 19.2151 7.48439 16.824C5.0933 14.4329 3.75 11.1899 3.75 7.80838C3.75025 6.71413 4.1492 5.65746 4.87221 4.83609C5.59522 4.01472 6.59274 3.48494 7.67812 3.34588C7.83922 3.32519 8.00266 3.35802 8.14326 3.43934C8.28386 3.52065 8.39384 3.64593 8.45625 3.79588L10.3406 8.19276C10.3896 8.30558 10.4101 8.42873 10.4003 8.55134C10.3905 8.67396 10.3507 8.79228 10.2844 8.89588L8.71875 11.2771C8.64905 11.3848 8.60814 11.5086 8.59993 11.6366C8.59172 11.7647 8.61649 11.8927 8.67187 12.0084Z" fill="#009379"/>
<path d="M8.67187 12.0084C9.44364 13.6021 10.7324 14.8876 12.3281 15.6553C12.4458 15.711 12.576 15.7351 12.7059 15.7253C12.8358 15.7154 12.9608 15.6719 13.0687 15.599L15.4125 14.0334C15.516 13.9631 15.6357 13.9203 15.7603 13.9088C15.8849 13.8973 16.0104 13.9176 16.125 13.9678L20.5125 15.8521C20.6625 15.9145 20.7877 16.0245 20.869 16.1651C20.9504 16.3057 20.9832 16.4692 20.9625 16.6303C20.8234 17.7156 20.2937 18.7132 19.4723 19.4362C18.6509 20.1592 17.5943 20.5581 16.5 20.5584C13.1185 20.5584 9.87548 19.2151 7.48439 16.824C5.0933 14.4329 3.75 11.1899 3.75 7.80838C3.75025 6.71413 4.1492 5.65746 4.87221 4.83609C5.59522 4.01472 6.59274 3.48494 7.67812 3.34588C7.83922 3.32519 8.00266 3.35802 8.14326 3.43934C8.28386 3.52065 8.39384 3.64593 8.45625 3.79588L10.3406 8.19276C10.3896 8.30558 10.4101 8.42873 10.4003 8.55134C10.3905 8.67396 10.3507 8.79228 10.2844 8.89588L8.71875 11.2771C8.64905 11.3848 8.60814 11.5086 8.59993 11.6366C8.59172 11.7647 8.61649 11.8927 8.67187 12.0084Z" stroke="#009379" stroke-width="1.5" stroke-linecap="round" stroke-linejoin="round"/>
<path d="M14.9434 4.05859C16.2155 4.40001 17.3755 5.07002 18.3068 6.00138C19.2382 6.93275 19.9082 8.09271 20.2496 9.36484" stroke="#009379" stroke-width="1.5" stroke-linecap="round" stroke-linejoin="round"/>
<path d="M14.166 6.95508C14.9311 7.15828 15.6289 7.56012 16.1887 8.1199C16.7485 8.67967 17.1503 9.37747 17.3535 10.1426" stroke="#009379" stroke-width="1.5" stroke-linecap="round" stroke-linejoin="round"/>
</svg>
