<svg width="32" height="33" viewBox="0 0 32 33" fill="none" xmlns="http://www.w3.org/2000/svg">
<path fill-rule="evenodd" clip-rule="evenodd" d="M0 16.3086C0 7.47204 7.16344 0.308594 16 0.308594C24.8366 0.308594 32 7.47204 32 16.3086C32 25.1452 24.8366 32.3086 16 32.3086C7.16344 32.3086 0 25.1452 0 16.3086Z" fill="#4E4D4D"/>
<path fill-rule="evenodd" clip-rule="evenodd" d="M15.5208 13.3132L15.5544 13.8668L14.9948 13.799C12.9579 13.5392 11.1784 12.6579 9.66756 11.1778L8.92891 10.4433L8.73865 10.9857C8.33575 12.1946 8.59316 13.4714 9.43253 14.3301C9.8802 14.8046 9.77948 14.8724 9.00725 14.59C8.73865 14.4996 8.50363 14.4318 8.48124 14.4657C8.4029 14.5448 8.6715 15.5729 8.88414 15.9797C9.17513 16.5446 9.76828 17.0983 10.4174 17.4259L10.9658 17.6858L10.3167 17.6971C9.68994 17.6971 9.66756 17.7084 9.73471 17.9457C9.95854 18.6801 10.8427 19.4597 11.8276 19.7987L12.5214 20.0359L11.9171 20.3975C11.0218 20.9172 9.96973 21.211 8.91772 21.2336C8.41409 21.2449 8 21.2901 8 21.324C8 21.437 9.36538 22.0697 10.16 22.3183C12.5438 23.0527 15.3753 22.7363 17.5017 21.4822C19.0126 20.5896 20.5235 18.8157 21.2286 17.0983C21.6091 16.1831 21.9896 14.5109 21.9896 13.7087C21.9896 13.1889 22.0232 13.1211 22.6499 12.4997C23.0192 12.1381 23.3662 11.7427 23.4333 11.6297C23.5452 11.415 23.534 11.415 22.9633 11.6071C22.012 11.9461 21.8777 11.9009 22.3477 11.3924C22.6947 11.0309 23.1088 10.3755 23.1088 10.1835C23.1088 10.1496 22.9409 10.2061 22.7506 10.3078C22.5492 10.4207 22.1015 10.5902 21.7658 10.6919L21.1614 10.884L20.613 10.5111C20.3108 10.3078 19.8856 10.0818 19.6617 10.014C19.0909 9.8558 18.218 9.8784 17.7032 10.0592C16.3042 10.5676 15.4201 11.8783 15.5208 13.3132Z" fill="white"/>
</svg>
