<svg width="17" height="13" viewBox="0 0 17 13" fill="none" xmlns="http://www.w3.org/2000/svg">
<path fill-rule="evenodd" clip-rule="evenodd" d="M8.054 3.54172L8.08758 4.09536L7.528 4.02756C5.49111 3.76769 3.71164 2.88639 2.20076 1.40627L1.46211 0.67185L1.27185 1.21419C0.868953 2.42315 1.12636 3.6999 1.96574 4.5586C2.4134 5.03315 2.31268 5.10094 1.54045 4.81847C1.27185 4.72808 1.03683 4.66029 1.01444 4.69419C0.936103 4.77328 1.2047 5.80146 1.41734 6.20821C1.70833 6.77315 2.30149 7.32678 2.9506 7.65444L3.499 7.91431L2.84988 7.92561C2.22315 7.92561 2.20076 7.93691 2.26791 8.17419C2.49175 8.9086 3.37589 9.68821 4.36075 10.0272L5.05464 10.2644L4.45029 10.626C3.55495 11.1457 2.50294 11.4395 1.45092 11.4621C0.947295 11.4734 0.533203 11.5186 0.533203 11.5525C0.533203 11.6655 1.89859 12.2982 2.6932 12.5468C5.07702 13.2812 7.90851 12.9648 10.0349 11.7107C11.5458 10.8181 13.0567 9.04418 13.7618 7.32678C14.1423 6.41159 14.5228 4.73938 14.5228 3.93717C14.5228 3.41743 14.5564 3.34964 15.1831 2.72821C15.5524 2.36665 15.8994 1.9712 15.9665 1.85821C16.0784 1.64354 16.0672 1.64354 15.4965 1.83562C14.5452 2.17458 14.4109 2.12938 14.8809 1.62094C15.2279 1.25938 15.642 0.604058 15.642 0.41198C15.642 0.378084 15.4741 0.434578 15.2838 0.536266C15.0824 0.649253 14.6347 0.818733 14.299 0.920422L13.6946 1.1125L13.1462 0.739643C12.844 0.536266 12.4188 0.310292 12.1949 0.2425C11.6241 0.0843182 10.7512 0.106916 10.2364 0.287695C8.83742 0.796136 7.95328 2.10678 8.054 3.54172Z" fill="#2D2D2D"/>
</svg>
