<svg width="33" height="33" viewBox="0 0 33 33" fill="none" xmlns="http://www.w3.org/2000/svg">
<path fill-rule="evenodd" clip-rule="evenodd" d="M0.5 16.5C0.5 7.66344 7.66344 0.5 16.5 0.5C25.3366 0.5 32.5 7.66344 32.5 16.5C32.5 25.3366 25.3366 32.5 16.5 32.5C7.66344 32.5 0.5 25.3366 0.5 16.5Z" fill="#E5F4F2"/>
<path fill-rule="evenodd" clip-rule="evenodd" d="M16.0208 13.5046L16.0544 14.0582L15.4948 13.9905C13.4579 13.7306 11.6784 12.8493 10.1676 11.3692L9.42891 10.6347L9.23865 11.1771C8.83575 12.386 9.09316 13.6628 9.93253 14.5215C10.3802 14.996 10.2795 15.0638 9.50725 14.7814C9.23865 14.691 9.00363 14.6232 8.98124 14.6571C8.9029 14.7362 9.1715 15.7643 9.38414 16.1711C9.67513 16.736 10.2683 17.2897 10.9174 17.6173L11.4658 17.8772L10.8167 17.8885C10.1899 17.8885 10.1676 17.8998 10.2347 18.1371C10.4585 18.8715 11.3427 19.6511 12.3276 19.9901L13.0214 20.2273L12.4171 20.5889C11.5218 21.1086 10.4697 21.4024 9.41772 21.425C8.91409 21.4363 8.5 21.4815 8.5 21.5154C8.5 21.6284 9.86538 22.2611 10.66 22.5097C13.0438 23.2441 15.8753 22.9277 18.0017 21.6736C19.5126 20.781 21.0235 19.0071 21.7286 17.2897C22.1091 16.3745 22.4896 14.7023 22.4896 13.9001C22.4896 13.3803 22.5232 13.3125 23.1499 12.6911C23.5192 12.3295 23.8662 11.9341 23.9333 11.8211C24.0452 11.6064 24.034 11.6064 23.4633 11.7985C22.512 12.1375 22.3777 12.0923 22.8477 11.5838C23.1947 11.2223 23.6088 10.5669 23.6088 10.3749C23.6088 10.341 23.4409 10.3975 23.2506 10.4992C23.0492 10.6121 22.6015 10.7816 22.2658 10.8833L21.6614 11.0754L21.113 10.7025C20.8108 10.4992 20.3856 10.2732 20.1617 10.2054C19.5909 10.0472 18.718 10.0698 18.2032 10.2506C16.8042 10.759 15.9201 12.0697 16.0208 13.5046Z" fill="#2D2D2D"/>
</svg>
